PathFileType	4	(X/Y/Z)	E:/New_biomech_experiments/MICROGRAVITY MOCAP/Session 2024-06-22/Neeraj_FullAction_pp_22_06_24_t02 (1).trc																																																																											
DataRate	CameraRate	NumFrames	NumMarkers	Units	OrigDataRate	OrigDataStartFrame	OrigNumFrames																																																																							
120	120	19	19	m	120	1895	7579																																																																							
Frame#	Time	RSHO			RBAK			LBHD			RUPA			PRSHO			RELB			CLAV			RFHD			LFHD			C7			RWRB			RFRM			RWRA			MRELB			DIA			STRN			ARSHO			RBHD			T10																						
		X1	Y1	Z1	X2	Y2	Z2	X3	Y3	Z3	X4	Y4	Z4	X5	Y5	Z5	X6	Y6	Z6	X7	Y7	Z7	X8	Y8	Z8	X9	Y9	Z9	X10	Y10	Z10	X11	Y11	Z11	X12	Y12	Z12	X13	Y13	Z13	X14	Y14	Z14	X15	Y15	Z15	X16	Y16	Z16	X17	Y17	Z17	X18	Y18	Z18	X19	Y19	Z19																				y19
																																																																														
1895	15.783	-0.03888	0.03539	0.1274	-0.11884	-0.13437	0.00315	-0.03164	0.2191	-0.11019	-0.0281	-0.11787	0.25644	-0.11089	-0.03227	0.07735	-0.03731	-0.21351	0.35126	0.10735	-0.01259	-0.06328	0.06687	0.30726	0.04089	0.08367	0.3272	-0.05993	-0.09305	0.03325	-0.06719	-0.05673	-0.43961	0.54056	-0.0242	-0.30658	0.45016	0.0412	-0.43613	0.52046	0.002	-0.29957	0.27421	0.08379	-0.32716	0.10833	0.14448	-0.17565	-0.05337	0.06776	-0.01859	0.10219	-0.05845	0.2146	-0.00784	-0.10972	-1.56719	-0.0613																				-1.56719
1896	15.792	-0.03885	0.0354	0.12744	-0.11885	-0.13437	0.00319	-0.03162	0.21907	-0.11014	-0.02814	-0.11786	0.25644	-0.11088	-0.03226	0.0774	-0.03729	-0.2135	0.35128	0.10734	-0.01256	-0.06326	0.06698	0.30724	0.04089	0.08372	0.32719	-0.05997	-0.09306	0.03321	-0.06712	-0.05672	-0.43959	0.54061	-0.02421	-0.30657	0.4502	0.04125	-0.43634	0.52042	0.002	-0.29954	0.27429	0.08379	-0.32718	0.10834	0.14446	-0.17566	-0.05336	0.06776	-0.01857	0.10221	-0.05841	0.21461	-0.00783	-0.10975	-1.56712	-0.06123																				-1.56712
1897	15.8	-0.03863	0.03564	0.12753	-0.11883	-0.13436	0.00322	-0.0316	0.21911	-0.11011	-0.0281	-0.11785	0.25644	-0.11088	-0.03227	0.07741	-0.0373	-0.2135	0.35133	0.10733	-0.01257	-0.06324	0.06706	0.30724	0.04086	0.08377	0.32716	-0.05997	-0.09305	0.03322	-0.06709	-0.05673	-0.43955	0.54067	-0.0242	-0.30654	0.45023	0.04125	-0.43631	0.52045	0.00204	-0.29953	0.27435	0.08383	-0.32718	0.10836	0.14446	-0.17566	-0.05334	0.06775	-0.01857	0.10225	-0.05834	0.21464	-0.00778	-0.10973	-1.56709	-0.06121																				-1.56709
1898	15.808	-0.0386	0.03566	0.12757	-0.11884	-0.13435	0.00328	-0.0316	0.21912	-0.11012	-0.02812	-0.11784	0.25647	-0.11089	-0.03226	0.07747	-0.03731	-0.2135	0.35135	0.1073	-0.01259	-0.06321	0.06713	0.30725	0.04085	0.08359	0.32697	-0.06017	-0.09307	0.03322	-0.06706	-0.05666	-0.43955	0.5407	-0.02417	-0.30655	0.45029	0.04125	-0.4363	0.52049	0.002	-0.29954	0.27435	0.08381	-0.32717	0.10839	0.14444	-0.17567	-0.05332	0.06775	-0.01855	0.10226	-0.05834	0.21468	-0.00779	-0.10973	-1.56706	-0.06114																				-1.56706
1899	15.817	-0.03862	0.03565	0.12758	-0.11881	-0.13437	0.00332	-0.0316	0.21913	-0.11008	-0.02815	-0.11785	0.25651	-0.11089	-0.03227	0.07748	-0.03729	-0.21348	0.3514	0.10729	-0.0126	-0.06318	0.06719	0.30724	0.04087	0.08384	0.32714	-0.05999	-0.09308	0.03322	-0.06702	-0.05665	-0.43954	0.54077	-0.02418	-0.30654	0.45031	0.0413	-0.43626	0.52052	0.00195	-0.29951	0.27434	0.0838	-0.32717	0.10839	0.14442	-0.17567	-0.0533	0.06772	-0.0186	0.10228	-0.05826	0.21467	-0.0077	-0.10973	-1.56702	-0.06112																				-1.56702
1900	15.825	-0.03884	0.03541	0.12754	-0.11883	-0.13439	0.00336	-0.03158	0.21909	-0.11005	-0.02814	-0.11781	0.25653	-0.11088	-0.03226	0.07755	-0.03729	-0.21346	0.35143	0.10727	-0.01262	-0.06315	0.06723	0.30726	0.04085	0.08366	0.32693	-0.06022	-0.09308	0.03321	-0.067	-0.05664	-0.43952	0.54081	-0.02415	-0.30652	0.45034	0.04129	-0.43627	0.52058	0.00195	-0.29955	0.27438	0.08382	-0.32717	0.10842	0.14437	-0.1757	-0.05328	0.06771	-0.01861	0.10228	-0.05827	0.21472	-0.00769	-0.10973	-1.567	-0.06109																				-1.567
1901	15.833	-0.03884	0.03542	0.12757	-0.11883	-0.13437	0.00339	-0.03154	0.21912	-0.11003	-0.02815	-0.11782	0.25659	-0.11088	-0.03229	0.07753	-0.03726	-0.21346	0.35147	0.10728	-0.01264	-0.06313	0.06729	0.30726	0.04085	0.08413	0.32712	-0.05981	-0.09309	0.03323	-0.06696	-0.05678	-0.43895	0.54056	-0.02413	-0.30651	0.45039	0.04129	-0.43626	0.52062	0.00197	-0.29952	0.2744	0.08381	-0.32717	0.10843	0.14438	-0.17571	-0.05322	0.06769	-0.01861	0.10231	-0.0579	0.21473	-0.00736	-0.10975	-1.56696	-0.06103																				-1.56696
1902	15.842	-0.03884	0.03541	0.12762	-0.11886	-0.13438	0.0034	-0.03155	0.21912	-0.11002	-0.02817	-0.11783	0.25662	-0.11088	-0.03228	0.0776	-0.03723	-0.21345	0.35153	0.10725	-0.01264	-0.0631	0.06731	0.30725	0.04086	0.08371	0.3269	-0.06025	-0.0931	0.03322	-0.06693	-0.05661	-0.43948	0.54093	-0.02413	-0.30647	0.45043	0.04132	-0.43627	0.52065	0.00192	-0.29952	0.27443	0.0838	-0.3272	0.10849	0.14435	-0.17574	-0.0532	0.0677	-0.01864	0.10235	-0.05813	0.21486	-0.00776	-0.10975	-1.56693	-0.06097																				-1.56693
1903	15.85	-0.03883	0.0354	0.12765	-0.11886	-0.13441	0.00344	-0.03152	0.21912	-0.10998	-0.02812	-0.11786	0.25663	-0.11088	-0.03228	0.07763	-0.03721	-0.21345	0.35154	0.10724	-0.01265	-0.06309	0.06732	0.30725	0.04087	0.08415	0.32713	-0.0598	-0.09309	0.03321	-0.06692	-0.05662	-0.43945	0.54099	-0.02408	-0.30648	0.45049	0.04133	-0.43624	0.52073	0.00185	-0.29951	0.27443	0.08383	-0.32718	0.1085	0.14433	-0.17575	-0.0532	0.06772	-0.01866	0.10236	-0.05812	0.21484	-0.00772	-0.1041	-1.56692	-0.06113																				-1.56692
1904	15.858	-0.03857	0.03563	0.12776	-0.11886	-0.13441	0.00345	-0.03152	0.21913	-0.10998	-0.02812	-0.11788	0.25665	-0.11088	-0.03228	0.07765	-0.03723	-0.21344	0.35158	0.10724	-0.01265	-0.06307	0.06733	0.30724	0.0409	0.084	0.32709	-0.05999	-0.09311	0.03322	-0.06686	-0.05663	-0.43943	0.54104	-0.02411	-0.30646	0.4505	0.04134	-0.43621	0.52077	0.00187	-0.29955	0.2745	0.0838	-0.32718	0.10852	0.14432	-0.17577	-0.05317	0.06768	-0.01869	0.10236	-0.05813	0.21483	-0.00771	-0.10407	-1.56686	-0.06109																				-1.56686
1905	15.867	-0.03887	0.0354	0.12771	-0.11885	-0.13442	0.00348	-0.03153	0.21914	-0.10994	-0.02812	-0.11788	0.25667	-0.1109	-0.03228	0.0777	-0.03706	-0.2125	0.35412	0.10722	-0.01267	-0.06302	0.06735	0.30725	0.04089	0.08421	0.32713	-0.05975	-0.0931	0.03321	-0.06683	-0.05662	-0.43941	0.54111	-0.0241	-0.30645	0.45056	0.04132	-0.4362	0.52081	0.00191	-0.29955	0.27457	0.08382	-0.32721	0.10856	0.14429	-0.17578	-0.05315	0.06767	-0.01872	0.1024	-0.05566	0.21159	-0.00776	-0.10399	-1.56683	-0.06103																				-1.56683
1906	15.875	-0.0386	0.03561	0.12779	-0.11886	-0.13443	0.00352	-0.03151	0.21914	-0.1099	-0.02816	-0.11787	0.25668	-0.1109	-0.03231	0.07772	-0.03705	-0.21248	0.35416	0.10722	-0.01268	-0.063	0.06738	0.30727	0.04094	0.08418	0.32711	-0.05975	-0.09312	0.0332	-0.06679	-0.05661	-0.43939	0.54115	-0.02411	-0.30644	0.4506	0.04132	-0.43619	0.52087	0.00191	-0.29955	0.27458	0.08378	-0.32722	0.10856	0.14427	-0.17578	-0.0531	0.06765	-0.01871	0.10244	-0.05585	0.21255	-0.00792	-0.10401	-1.56679	-0.06103																				-1.56679
1907	15.883	-0.0386	0.03562	0.12785	-0.11886	-0.13447	0.00356	-0.03157	0.21873	-0.10975	-0.02815	-0.11789	0.25672	-0.11091	-0.03234	0.07777	-0.03708	-0.21248	0.35416	0.10719	-0.01269	-0.06296	0.06735	0.30727	0.04096	0.08418	0.3271	-0.05974	-0.09315	0.0332	-0.06675	-0.05663	-0.4394	0.54117	-0.02417	-0.30644	0.45064	0.04134	-0.43614	0.52092	0.0019	-0.29953	0.2746	0.08383	-0.3272	0.10861	0.14427	-0.17579	-0.05309	0.06763	-0.0187	0.10247	-0.05584	0.21253	-0.0079	-0.104	-1.56675	-0.06098																				-1.56675
1908	15.892	-0.03887	0.03538	0.1278	-0.11885	-0.13448	0.00359	-0.03157	0.21912	-0.10986	-0.02822	-0.11788	0.25676	-0.11093	-0.03235	0.07778	-0.03719	-0.21255	0.3542	0.10717	-0.01267	-0.06293	0.06734	0.30726	0.04098	0.08415	0.3271	-0.05973	-0.09317	0.03317	-0.06673	-0.05662	-0.43938	0.54123	-0.02417	-0.30641	0.45065	0.04133	-0.43613	0.52096	0.00187	-0.29951	0.27461	0.0837	-0.327	0.1081	0.14427	-0.17579	-0.05306	0.06763	-0.01869	0.1025	-0.05589	0.21253	-0.00784	-0.10398	-1.56673	-0.06096																				-1.56673
1909	15.9	-0.03892	0.03536	0.1278	-0.11887	-0.1345	0.00362	-0.03163	0.21873	-0.10968	-0.02822	-0.11789	0.25677	-0.11094	-0.03237	0.07783	-0.03716	-0.21248	0.35423	0.10717	-0.01269	-0.06292	0.06733	0.30727	0.04103	0.0841	0.32712	-0.05968	-0.0932	0.03316	-0.06669	-0.05661	-0.43938	0.54126	-0.02419	-0.30642	0.4507	0.04131	-0.43613	0.52098	0.00196	-0.29955	0.27474	0.08378	-0.32721	0.10864	0.14426	-0.1758	-0.05306	0.06758	-0.01872	0.1025	-0.05574	0.21156	-0.00759	-0.10402	-1.56669	-0.06093																				-1.56669
1910	15.908	-0.03899	0.03534	0.12782	-0.11888	-0.1345	0.00364	-0.03161	0.21912	-0.1098	-0.02823	-0.11789	0.2568	-0.11098	-0.03237	0.07785	-0.03725	-0.21251	0.35425	0.10714	-0.01268	-0.06288	0.06729	0.30726	0.04104	0.08386	0.3271	-0.05983	-0.09319	0.03316	-0.06667	-0.05662	-0.43936	0.54132	-0.0242	-0.30641	0.45073	0.04132	-0.43612	0.52103	0.00188	-0.29952	0.27471	0.0838	-0.32719	0.10866	0.14424	-0.17579	-0.05305	0.06757	-0.01872	0.10253	-0.05585	0.21249	-0.00773	-0.10395	-1.56667	-0.0609																				-1.56667
1911	15.917	-0.03895	0.03536	0.12788	-0.11889	-0.13451	0.00367	-0.03159	0.21909	-0.1097	-0.02827	-0.11787	0.25682	-0.11099	-0.03239	0.0779	-0.03723	-0.21251	0.35429	0.10712	-0.01269	-0.06285	0.06723	0.30723	0.04111	0.084	0.32713	-0.05961	-0.09321	0.03315	-0.06664	-0.05662	-0.43934	0.54134	-0.0242	-0.3064	0.45077	0.04131	-0.43612	0.52109	0.00197	-0.2995	0.27483	0.08379	-0.32722	0.10872	0.14423	-0.17579	-0.05299	0.06755	-0.01871	0.10256	-0.05592	0.21252	-0.00772	-0.104	-1.56664	-0.06086																				-1.56664
1912	15.925	-0.03897	0.03536	0.12788	-0.1189	-0.13452	0.0037	-0.03171	0.21865	-0.10958	-0.02826	-0.11789	0.25687	-0.111	-0.0324	0.07792	-0.0372	-0.21247	0.3543	0.10712	-0.01269	-0.06282	0.0672	0.30726	0.04115	0.08377	0.32711	-0.05974	-0.09324	0.03314	-0.06663	-0.05663	-0.43933	0.54142	-0.02425	-0.30641	0.45082	0.0413	-0.43609	0.52113	0.00189	-0.29949	0.27483	0.08379	-0.32722	0.10874	0.14422	-0.1758	-0.05296	0.06752	-0.01874	0.1026	-0.05592	0.21249	-0.00764	-0.10401	-1.56663	-0.06083																				-1.56663
1913	15.933	-0.03878	0.03557	0.12797	-0.1189	-0.13454	0.00374	-0.03168	0.21911	-0.10967	-0.0283	-0.11788	0.25689	-0.111	-0.03243	0.07796	-0.03733	-0.21253	0.35341	0.1071	-0.0127	-0.06279	0.06713	0.30725	0.04119	0.08393	0.32714	-0.0595	-0.09327	0.03312	-0.06657	-0.05663	-0.43933	0.54149	-0.02423	-0.30639	0.45085	0.04127	-0.43609	0.52119	0.00191	-0.2995	0.27488	0.0838	-0.3272	0.10876	0.14421	-0.1758	-0.05292	0.06751	-0.01875	0.10262	-0.05597	0.21247	-0.00758	-0.10405	-1.56657	-0.06081																				-1.56657
